<svg width="88" height="112" viewBox="0 0 88 112" fill="none" xmlns="http://www.w3.org/2000/svg">
<g id="Design" clip-path="url(#clip0_0_1551)">
<path id="Vector" d="M14 44C14 27.43 27.43 14 44 14C60.57 14 74 27.43 74 44C74 60.57 60.57 74 44 74" stroke="black" stroke-width="3" stroke-linecap="round" stroke-linejoin="round"/>
<path id="Vector_2" d="M39.0002 86.2899L30.4502 109.78L24.4702 96.9599L11.6602 102.94L20.2102 79.4399" fill="#E10514"/>
<path id="Vector_3" d="M49 86.2899L57.55 109.78L63.53 96.9599L76.34 102.94L67.79 79.4399" fill="#E10514"/>
<path id="Vector_4" d="M86.5 44C86.5 67.47 67.47 86.5 44 86.5C20.53 86.5 1.5 67.47 1.5 44C1.5 20.53 20.53 1.5 44 1.5" stroke="black" stroke-width="3" stroke-linecap="round" stroke-linejoin="round"/>
<path id="Vector_5" d="M39.0002 86.29L30.4502 109.78L24.4702 96.96L11.6602 102.94" stroke="black" stroke-width="3" stroke-linecap="round" stroke-linejoin="round"/>
<path id="Vector_6" d="M57.5498 109.78L63.5298 96.9599L76.3398 102.94L67.7898 79.4399" stroke="black" stroke-width="3" stroke-linecap="round" stroke-linejoin="round"/>
<path id="Vector_7" d="M54.05 31.5498L39 46.5998L33.95 41.5498L29 46.4998L39 56.4998L59 36.4998L54.05 31.5498Z" fill="#E10514"/>
<path id="Vector_8" d="M29 46.5L39 56.5L59 36.5" stroke="black" stroke-width="3" stroke-linecap="round" stroke-linejoin="round"/>
</g>
<defs>
<clipPath id="clip0_0_1551">
<rect width="88" height="111.28" fill="white"/>
</clipPath>
</defs>
</svg>
