<svg width="133" height="108" viewBox="0 0 133 108" fill="none" xmlns="http://www.w3.org/2000/svg">
<g id="Design" clip-path="url(#clip0_0_1484)">
<path id="Vector" d="M81.5 11.5L98.39 18.26C103.56 20.33 107.63 24.45 109.63 29.65L131.5 86.5" stroke="black" stroke-width="3" stroke-linejoin="round"/>
<path id="Vector_2" d="M76.5 1.5H6.5C3.74 1.5 1.5 3.74 1.5 6.5V46.5C1.5 49.26 3.74 51.5 6.5 51.5H69.19L64.71 39.86C63.19 35.91 65.06 31.46 68.94 29.78C73.06 27.99 77.84 30 79.45 34.19L81.49 39.51V6.5C81.49 3.74 79.25 1.5 76.49 1.5H76.5ZM53.81 17.3C53.81 21.06 50.92 31.05 45.57 38.35C44.71 39.75 43.11 40.5 41.5 40.5C39.89 40.39 38.4 39.75 37.43 38.35C32.19 31.15 29.19 21.16 29.19 17.3C29.08 16.01 29.62 14.94 30.8 14.08C32.83 12.58 37.22 11.5 41.5 11.5C45.78 11.5 50.17 12.57 52.2 14.08C53.38 14.94 53.91 16.01 53.81 17.3Z" fill="#E10514"/>
<path id="Vector_3" d="M101.5 56.5001L99.5303 57.3501C94.3103 59.6101 88.2603 57.0701 86.2203 51.7601L79.4603 34.1801C77.8503 29.9901 73.0703 27.9801 68.9503 29.7701C65.0703 31.4501 63.2003 35.9001 64.7203 39.8501L82.3503 85.6801C83.8103 89.4601 86.3803 92.7201 89.7203 95.0101L106.5 106.49" stroke="black" stroke-width="3" stroke-linejoin="round"/>
<path id="Vector_4" d="M56.5 51.5H6.5C3.74 51.5 1.5 49.26 1.5 46.5V6.5C1.5 3.74 3.74 1.5 6.5 1.5H76.5C79.26 1.5 81.5 3.74 81.5 6.5V21.5" stroke="black" stroke-width="3" stroke-linejoin="round"/>
</g>
<defs>
<clipPath id="clip0_0_1484">
<rect width="132.9" height="107.74" fill="white"/>
</clipPath>
</defs>
</svg>
