<svg width="93" height="113" viewBox="0 0 93 113" fill="none" xmlns="http://www.w3.org/2000/svg">
<g id="Design" clip-path="url(#clip0_0_1474)">
<path id="Vector" d="M16.5 57.9702C7.29 66.2102 1.5 78.1702 1.5 91.5002" stroke="black" stroke-width="3" stroke-linejoin="round"/>
<path id="Vector_2" d="M65.25 91.5H71.5" stroke="black" stroke-width="3" stroke-linejoin="round"/>
<path id="Vector_3" d="M66.5 51.42V111.5H41.5L56.8 50.23C57.35 48.04 59.32 46.5 61.58 46.5C64.3 46.5 66.5 48.7 66.5 51.42Z" fill="#E10514"/>
<path id="Vector_4" d="M41.5 111.5L52.75 66.5" stroke="black" stroke-width="3" stroke-linejoin="round"/>
<path id="Vector_5" d="M66.5 111.5V51.5" stroke="black" stroke-width="3" stroke-linejoin="round"/>
<path id="Vector_6" d="M46.5 91.5002H31.5C25.98 91.5002 21.5 95.9802 21.5 101.5C21.5 107.02 25.98 111.5 31.5 111.5H81.5C87.02 111.5 91.5 107.02 91.5 101.5V91.5002C91.5 78.1702 85.71 66.2102 76.5 57.9702" stroke="black" stroke-width="3" stroke-linejoin="round"/>
<path id="Vector_7" d="M46.5 41.5C57.5457 41.5 66.5 32.5457 66.5 21.5C66.5 10.4543 57.5457 1.5 46.5 1.5C35.4543 1.5 26.5 10.4543 26.5 21.5C26.5 32.5457 35.4543 41.5 46.5 41.5Z" stroke="black" stroke-width="3" stroke-linejoin="round"/>
<path id="Vector_8" d="M31.5 49.0601C14.02 55.2401 1.5 71.9101 1.5 91.5001" stroke="black" stroke-width="3" stroke-linejoin="round"/>
</g>
<defs>
<clipPath id="clip0_0_1474">
<rect width="93" height="113" fill="white"/>
</clipPath>
</defs>
</svg>
