<svg width="113" height="66" viewBox="0 0 113 66" fill="none" xmlns="http://www.w3.org/2000/svg">
<path d="M71.1781 3.36353C68.4991 1.42016 62.6697 0.0358777 56.9994 0C51.3291 0.0358777 45.5027 1.42016 42.8207 3.36353C41.235 4.51461 40.5292 5.91384 40.6673 7.64195C40.6673 12.6738 44.5867 25.7393 51.5904 35.2498C52.8038 37.0497 54.825 37.9825 56.9994 37.9915C59.1738 37.9825 61.1951 37.0497 62.4084 35.2498C69.4122 25.7363 73.3315 12.6738 73.3315 7.64195C73.4666 5.91384 72.7639 4.51461 71.1781 3.36353Z" fill="#E10514"/>
<path d="M52.1224 17.5589C52.1224 17.5589 50.6537 14.0369 49.8819 10.3594C49.8158 10.0485 50.005 9.74052 50.3144 9.6568C51.8851 9.22627 54.8073 8.82265 56.4171 8.82265C60.5377 8.82265 63.6131 9.6568 63.547 12.4822C63.4869 15.0504 60.2403 17.0057 52.1254 17.5589M67.8748 11.9829C67.7577 7.95261 64.6763 4.48145 56.4622 4.48145C52.9903 4.48145 49.2572 5.14219 46.7314 6.26337C46.404 6.40688 46.1247 6.55936 45.9085 6.71782C45.4099 7.07959 45.0555 7.5759 45.1186 8.35923C45.1336 8.56552 46.0346 18.994 54.7202 32.1312C55.2158 32.8816 55.8825 33.7696 56.8406 33.7696C57.18 33.7696 57.3391 33.7457 57.8137 33.5543C58.2611 33.3749 58.9129 32.8637 59.075 32.0774C59.1952 31.4824 59.036 30.8904 58.8168 30.5556C55.9666 26.2383 53.8763 21.6968 53.8763 21.6968C53.8763 21.6968 68.1421 21.0211 67.8778 11.9799" fill="white"/>
<path d="M99.8476 51.9536C99.8476 51.3796 99.8416 50.8055 99.8416 50.2345C98.7154 50.1986 97.5891 50.1657 96.4629 50.1328C96.4839 54.6115 96.5079 59.0903 96.529 63.569C97.6522 63.7065 98.7785 63.8471 99.9017 63.9966C99.8897 61.5479 99.8807 59.1022 99.8687 56.6536C99.8597 54.7072 100.659 53.7744 102.259 53.8671C102.277 53.8671 102.298 53.8671 102.316 53.8701C102.31 52.6323 102.307 51.3945 102.301 50.1567C101.013 50.0371 100.301 50.7966 99.8476 51.9536Z" fill="#E10514"/>
<path d="M108.332 62.4002C107.476 62.2836 107.076 60.8455 107.067 58.2444C107.067 57.9185 107.067 57.5926 107.067 57.2667C107.061 54.6895 107.458 53.3022 108.317 53.3531C109.172 53.4009 109.662 54.8719 109.665 57.5119C109.665 57.8438 109.665 58.1786 109.665 58.5105C109.665 61.1774 109.188 62.5228 108.332 62.4032M109.617 45.8965C109.617 48.0581 109.623 50.2197 109.626 52.3814C109.109 51.4605 108.422 50.2526 106.935 50.2078C105.106 50.154 103.679 51.7774 103.697 56.8123C103.697 57.2338 103.697 57.6584 103.7 58.08C103.718 63.1626 105.148 64.9894 106.971 65.2824C108.452 65.5216 109.16 64.3974 109.644 63.5782C109.644 64.1971 109.644 64.816 109.644 65.4349C110.761 65.6173 111.881 65.8056 112.999 66V45.8965H109.617Z" fill="#E10514"/>
<path d="M7.08383 52.5908C7.07783 54.89 5.96359 55.9813 4.50698 56.1935C4.49797 56.1935 4.48896 56.1935 4.47695 56.1935C4.47995 53.8495 4.48295 51.5055 4.48896 49.1615C4.528 49.1615 4.56404 49.1615 4.60309 49.1585C6.11977 49.1226 7.08984 50.1302 7.08383 52.537V52.5908ZM4.11955 46.0342C3.0774 46.0342 2.03825 46.0342 0.996094 46.0372V66.0001C2.15237 65.7998 3.30565 65.6055 4.46193 65.4171C4.46193 63.387 4.46794 61.3569 4.47094 59.3269C4.47995 59.3269 4.48896 59.3269 4.50097 59.3239C8.03589 58.6601 10.5557 56.4507 10.5707 52.3068V52.253C10.5857 47.9566 7.93077 46.0551 4.11955 46.0372" fill="#E10514"/>
<path d="M16.6293 60.1186C16.6263 60.9767 16.0496 61.467 15.479 61.5298C14.8783 61.5986 14.4248 61.2398 14.4308 59.8824C14.4308 59.7629 14.4308 59.6433 14.4308 59.5237C14.4369 58.2171 14.8964 57.664 15.5811 57.6072C15.8664 57.5833 16.38 57.6939 16.6383 57.7986C16.6353 58.5729 16.6323 59.3443 16.6263 60.1186M18.6445 51.0207C17.8186 50.33 16.7014 50.0041 15.0435 50.055C14.1846 50.0789 13.0103 50.2941 11.9771 50.7486C11.9741 51.7233 11.9681 52.6979 11.9651 53.6696C12.7099 53.2869 13.626 52.9311 14.5119 52.8863C15.9145 52.8175 16.6533 53.5142 16.6473 54.8984C16.6473 55.1675 16.6473 55.4366 16.6443 55.7057C15.9866 55.4217 15.3318 55.2871 14.6171 55.3379C12.5868 55.4695 11.2113 56.8807 11.1993 60.0409C11.1993 60.1904 11.1993 60.3369 11.1993 60.4864C11.1903 63.0666 12.3826 64.4658 14.0644 64.2326C15.1486 64.0861 15.9806 63.4164 16.5872 62.2414C16.5872 62.7198 16.5812 63.2011 16.5812 63.6795C17.7045 63.539 18.8277 63.4044 19.954 63.2789C19.969 60.3518 19.984 57.4278 20.002 54.5008C20.011 52.9491 19.5575 51.786 18.6475 51.0207" fill="#E10514"/>
<path d="M26.8123 55.1914C25.2446 53.9925 24.9893 53.6606 24.9893 53.1613C24.9893 52.6351 25.4518 52.2584 26.2837 52.2285C27.0856 52.2016 27.8875 52.4318 28.6023 52.7099C28.6083 51.804 28.6113 50.898 28.6173 49.9921C27.7583 49.7769 27.0436 49.6961 26.0975 49.7171C23.4906 49.7679 21.7337 51.1761 21.7247 53.3557C21.7247 53.3706 21.7247 53.3885 21.7247 53.4035C21.7157 55.0658 22.7668 56.175 24.3075 57.3411C25.7611 58.4383 26.0194 58.818 26.0134 59.3413C26.0104 59.9811 25.5479 60.3996 24.746 60.4684C23.9742 60.5342 23.0011 60.286 21.8598 59.8734C21.8538 60.8152 21.8478 61.757 21.8448 62.6988C22.8149 62.9619 23.9591 63.0815 24.9623 62.9828C27.3979 62.7347 29.269 61.2009 29.281 59.0363C29.281 59.0213 29.281 59.0064 29.281 58.9885C29.29 57.5623 28.6924 56.6056 26.8093 55.1914" fill="#E10514"/>
<path d="M35.5283 54.8065C33.9576 53.6405 33.7023 53.3206 33.7023 52.8422C33.7053 52.3399 34.1648 51.9841 34.9968 51.9632C35.7986 51.9423 36.6005 52.1725 37.3153 52.4476C37.3183 51.5775 37.3243 50.7075 37.3273 49.8345C36.4684 49.6222 35.7506 49.5415 34.8075 49.5564C32.2007 49.5893 30.4437 50.9228 30.4317 52.9977C30.4317 53.0126 30.4317 53.0276 30.4317 53.0425C30.4227 54.6241 31.4769 55.6915 33.0206 56.8276C34.4772 57.901 34.7325 58.2687 34.7325 58.771C34.7295 59.3839 34.2669 59.7756 33.4651 59.8264C32.6902 59.8742 31.7171 59.6171 30.5729 59.2075C30.5668 60.1045 30.5638 61.0014 30.5578 61.8983C31.5309 62.1704 32.6782 62.308 33.6813 62.2362C36.12 62.0568 37.9971 60.6217 38.0061 58.5408C38.0061 58.5258 38.0061 58.5109 38.0061 58.4959C38.0121 57.1266 37.4144 56.1878 35.5283 54.8095" fill="#E10514"/>
<path d="M45.7391 55.8828C45.7331 57.9667 45.3276 59.1208 44.4657 59.1477C43.6037 59.1776 43.1202 58.0474 43.1262 55.9456V55.1503C43.1352 53.0275 43.6277 51.8944 44.4897 51.8824C45.3516 51.8705 45.7481 52.9857 45.7421 55.0905C45.7421 55.3536 45.7421 55.6167 45.7421 55.8798M45.8772 49.38C44.3876 49.3919 43.6638 50.3905 43.1742 51.1051C43.1742 50.6118 43.1772 50.1184 43.1802 49.6251C42.051 49.6371 40.9247 49.649 39.7985 49.664C39.7775 54.6211 39.7534 59.5752 39.7324 64.5293C40.8647 64.4576 41.9939 64.3948 43.1262 64.338C43.1322 62.9029 43.1382 61.4648 43.1412 60.0297C43.6548 60.7203 44.3425 61.6352 45.8382 61.5814C47.6792 61.5186 49.1208 60.1074 49.1298 55.9456C49.1298 55.5958 49.1298 55.249 49.1298 54.8991C49.1388 50.6925 47.7093 49.368 45.8742 49.38" fill="#E10514"/>
<path d="M56.6546 55.7809C56.6546 58.0353 56.135 59.1206 55.2731 59.1235C54.4111 59.1265 53.8945 58.0472 53.8945 55.7899C53.8945 55.5298 53.8945 55.2697 53.8945 55.0096C53.8945 52.7104 54.4141 51.667 55.2761 51.664C56.135 51.664 56.6546 52.7044 56.6546 55.0006V55.7809ZM55.2791 49.3857C52.528 49.3857 50.5158 51.3351 50.5098 55.0813C50.5098 55.3145 50.5098 55.5447 50.5098 55.778C50.5008 59.5272 52.513 61.4137 55.2761 61.3988C58.0391 61.3838 60.0514 59.4793 60.0484 55.7451C60.0484 55.5149 60.0484 55.2816 60.0484 55.0514C60.0453 51.3172 58.0361 49.3828 55.2851 49.3857" fill="#E10514"/>
<path d="M65.0303 51.0424C65.0303 50.555 65.0303 50.0677 65.0273 49.5804C63.8981 49.5744 62.7718 49.5684 61.6426 49.5654C61.6486 53.4462 61.6516 57.327 61.6576 61.2107C62.7898 61.2257 63.9221 61.2496 65.0514 61.2765C65.0453 59.1956 65.0423 57.1177 65.0363 55.0368C65.0333 53.3774 65.8352 52.5582 67.442 52.5791C67.463 52.5791 67.481 52.5791 67.4991 52.5791C67.4961 51.5417 67.4931 50.5042 67.4901 49.4668C66.1986 49.392 65.4838 50.0438 65.0273 51.0424" fill="#E10514"/>
<path d="M74.1598 59.4169C73.5561 59.39 73.2107 59.1747 73.2077 58.6426C73.1987 56.3583 73.1897 54.0741 73.1807 51.7899C73.7844 51.8019 74.3851 51.8138 74.9887 51.8258C74.9857 51.1112 74.9827 50.3937 74.9797 49.6761C74.379 49.6672 73.7754 49.6612 73.1747 49.6522C73.1687 48.6357 73.1657 47.6191 73.1627 46.6056C72.0365 46.6056 70.9072 46.5996 69.781 46.5996C69.784 47.6072 69.787 48.6117 69.793 49.6163C69.4866 49.6163 69.1803 49.6103 68.877 49.6074C68.877 50.31 68.88 51.0156 68.883 51.7182C69.1893 51.7241 69.4956 51.7271 69.802 51.7301C69.811 54.2864 69.82 56.8427 69.829 59.399C69.835 61.1809 71.3877 61.6413 73.0005 61.7191C73.6913 61.752 74.4962 61.6174 75.0097 61.4231C75.0097 60.7235 75.0037 60.0209 75.0007 59.3182C74.7124 59.393 74.4271 59.4259 74.1688 59.4139" fill="#E10514"/>
<path d="M82.4528 59.536C80.846 59.4284 79.7228 58.4986 79.6987 54.283C79.6987 54.0856 79.6987 53.8883 79.6957 53.691C79.6747 49.7085 80.7889 48.6232 82.3356 48.6412C82.9934 48.6502 83.567 48.8415 84.2878 49.2033C84.2818 48.2256 84.2758 47.2449 84.2728 46.2673C83.528 45.9862 82.9513 45.8936 81.9782 45.8936C78.7136 45.9055 76.1158 48.0911 76.1428 53.6013C76.1428 53.7807 76.1428 53.9601 76.1428 54.1394C76.1668 59.6078 78.6205 61.9727 81.8371 62.2299C82.8402 62.3076 83.6151 62.2538 84.4169 61.9488C84.4109 61.016 84.4049 60.0832 84.4019 59.1534C83.6871 59.4553 82.9994 59.5689 82.4558 59.5331" fill="#E10514"/>
<path d="M89.9672 60.6748C89.3665 60.621 88.904 60.1994 88.898 58.9347C88.898 58.8241 88.898 58.7135 88.898 58.5998C88.892 57.383 89.3455 56.9345 90.0333 56.9794C90.3186 56.9973 90.8352 57.1767 91.0934 57.3172C91.0964 58.0587 91.1024 58.8002 91.1055 59.5446C91.1085 60.3698 90.5378 60.7256 89.9672 60.6778M93.0336 50.943C92.1987 50.2045 91.0784 49.8397 89.4176 49.8008C88.5586 49.7799 87.3843 49.9204 86.3542 50.2762C86.3602 51.1552 86.3632 52.0342 86.3692 52.9132C87.111 52.6382 88.0271 52.384 88.916 52.4169C90.3216 52.4678 91.0694 53.2003 91.0754 54.5337C91.0754 54.7908 91.0784 55.0509 91.0784 55.3081C90.4177 54.9553 89.757 54.752 89.0422 54.7161C87.0059 54.6174 85.6394 55.7296 85.6544 58.5371C85.6544 58.6686 85.6544 58.8032 85.6544 58.9347C85.6664 61.2309 86.8798 62.7407 88.5706 62.9111C89.6578 63.0188 90.4868 62.5763 91.0814 61.5717C91.0814 62.0321 91.0874 62.4896 91.0904 62.95C92.2167 63.0696 93.3429 63.1922 94.4662 63.3208C94.4512 60.3878 94.4361 57.4518 94.4211 54.5188C94.4121 52.9611 93.9496 51.7502 93.0276 50.937" fill="#E10514"/>
</svg>
