<svg width="31" height="37" viewBox="0 0 31 37" fill="none" xmlns="http://www.w3.org/2000/svg">
<path d="M28.9636 3.24253C26.4055 1.35106 20.8855 0 15.5 0C10.1145 0 4.59446 1.35106 2.03637 3.24253C0.555375 4.32338 -0.117807 5.67443 0.0168295 7.2957C0.0168295 12.1595 3.78665 24.7243 10.3838 33.7764C11.5955 35.5328 13.4805 36.3434 15.5 36.4785C17.5195 36.4785 19.5391 35.5328 20.6162 33.7764C27.348 24.5892 30.9832 12.0244 30.9832 7.2957C31.1178 5.67443 30.4446 4.32338 28.9636 3.24253Z" fill="#E10514"/>
<path d="M10.788 16.8881C10.788 16.8881 9.4416 13.5104 8.63378 9.99768C8.63378 9.72747 8.76842 9.45725 9.03769 9.32215C10.5187 8.91683 13.3461 8.51152 14.8271 8.51152C18.7315 8.51152 21.6935 9.32215 21.6935 12.0243C21.6935 14.4562 18.5969 16.3476 10.788 16.8881ZM25.8672 11.4838C25.7326 7.56578 22.7706 4.32324 14.9617 4.32324C11.5958 4.32324 8.09524 4.99877 5.67179 6.07961C5.40251 6.21472 5.13324 6.34983 4.86397 6.48493C4.32542 6.89025 4.05615 7.29556 4.05615 8.1062C4.05615 8.2413 4.86397 18.3742 13.2114 30.939C13.75 31.6146 14.2885 32.5603 15.231 32.5603C15.5002 32.5603 15.7695 32.5603 16.1734 32.2901C16.5773 32.155 17.2505 31.6146 17.3851 30.8039C17.5198 30.2635 17.3851 29.7231 17.1159 29.3178C14.4231 25.1295 12.4036 20.8061 12.4036 20.8061C12.4036 20.8061 26.1365 20.1306 25.8672 11.4838Z" fill="white"/>
</svg>
