<svg xmlns="http://www.w3.org/2000/svg" width="112" height="64" viewBox="0 0 112 64" fill="none"><path d="M70.1816 3.26161C67.5027 1.37712 61.6732 0.0347905 56.0029 0C50.3326 0.0347905 44.5062 1.37712 41.8242 3.26161C40.2385 4.3778 39.5327 5.73463 39.6708 7.41037C39.6708 12.2897 43.5902 24.9593 50.5939 34.1817C51.8073 35.927 53.8285 36.8315 56.0029 36.8402C58.1773 36.8315 60.1986 35.927 61.4119 34.1817C68.4157 24.9564 72.335 12.2897 72.335 7.41037C72.4701 5.73463 71.7674 4.3778 70.1816 3.26161Z" fill="#E10514"></path><path d="M51.1255 17.027C51.1255 17.027 49.6569 13.6118 48.885 10.0458C48.819 9.74424 49.0082 9.44562 49.3175 9.36444C50.8883 8.94695 53.8105 8.55556 55.4203 8.55556C59.5408 8.55556 62.6162 9.36444 62.5502 12.1042C62.4901 14.5946 59.2435 16.4907 51.1285 17.027M66.878 11.62C66.7608 7.71189 63.6794 4.34591 55.4653 4.34591C51.9935 4.34591 48.2603 4.98664 45.7346 6.07384C45.4072 6.213 45.1279 6.36086 44.9116 6.51452C44.4131 6.86532 44.0587 7.34659 44.1218 8.10618C44.1368 8.30623 45.0378 18.4187 53.7234 31.1578C54.2189 31.8855 54.8857 32.7465 55.8437 32.7465C56.1831 32.7465 56.3423 32.7234 56.8168 32.5378C57.2643 32.3639 57.916 31.8681 58.0782 31.1056C58.1983 30.5287 58.0392 29.9546 57.8199 29.6299C54.9698 25.4434 52.8795 21.0395 52.8795 21.0395C52.8795 21.0395 67.1452 20.3843 66.881 11.6171" fill="white"></path><path d="M98.8514 50.3795C98.8514 49.8229 98.8453 49.2662 98.8453 48.7125C97.7191 48.6777 96.5928 48.6458 95.4666 48.6139C95.4876 52.9569 95.5117 57.2999 95.5327 61.6429C96.6559 61.7763 97.7822 61.9126 98.9054 62.0575C98.8934 59.6831 98.8844 57.3115 98.8724 54.9371C98.8634 53.0497 99.6623 52.1451 101.263 52.235C101.281 52.235 101.302 52.235 101.32 52.2379C101.314 51.0376 101.311 49.8374 101.305 48.6371C100.017 48.5211 99.3049 49.2575 98.8514 50.3795Z" fill="#E10514"></path><path d="M107.336 60.5094C106.48 60.3963 106.08 59.0018 106.071 56.4795C106.071 56.1634 106.071 55.8474 106.071 55.5314C106.065 53.0323 106.462 51.6871 107.321 51.7364C108.177 51.7827 108.666 53.2091 108.669 55.7691C108.669 56.091 108.669 56.4157 108.669 56.7375C108.669 59.3236 108.192 60.6282 107.336 60.5123M108.621 44.5057C108.621 46.6019 108.627 48.698 108.63 50.7941C108.114 49.9012 107.426 48.7299 105.939 48.6864C104.11 48.6342 102.684 50.2085 102.702 55.0907C102.702 55.4995 102.702 55.9112 102.705 56.32C102.723 61.2487 104.152 63.0201 105.975 63.3042C107.456 63.5361 108.165 62.446 108.648 61.6516C108.648 62.2518 108.648 62.8519 108.648 63.4521C109.765 63.6289 110.886 63.8116 112.003 64V44.5057H108.621Z" fill="#E10514"></path><path d="M6.08774 50.9971C6.08173 53.2265 4.9675 54.2848 3.51089 54.4906C3.50188 54.4906 3.49287 54.4906 3.48085 54.4906C3.48386 52.2176 3.48686 49.9446 3.49287 47.6717C3.53191 47.6717 3.56795 47.6717 3.60699 47.6688C5.12367 47.634 6.09375 48.611 6.08774 50.9449V50.9971ZM3.12346 44.6391C2.0813 44.6391 1.04215 44.6391 0 44.642V64C1.15628 63.8058 2.30956 63.6173 3.46584 63.4347C3.46584 61.4661 3.47184 59.4975 3.47485 57.529C3.48386 57.529 3.49287 57.529 3.50488 57.5261C7.03979 56.8824 9.55958 54.7399 9.5746 50.7216V50.6694C9.58962 46.5033 6.93468 44.6594 3.12346 44.642" fill="#E10514"></path><path d="M15.6322 58.2973C15.6292 59.1293 15.0526 59.6048 14.4819 59.6657C13.8813 59.7324 13.4278 59.3845 13.4338 58.0682C13.4338 57.9523 13.4338 57.8363 13.4338 57.7203C13.4398 56.4534 13.8993 55.917 14.5841 55.8619C14.8694 55.8387 15.3829 55.946 15.6412 56.0475C15.6382 56.7984 15.6352 57.5464 15.6292 58.2973M17.6475 49.475C16.8215 48.8053 15.7043 48.4892 14.0465 48.5385C13.1875 48.5617 12.0132 48.7705 10.9801 49.2111C10.9771 50.1563 10.9711 51.1014 10.9681 52.0437C11.7129 51.6726 12.6289 51.3276 13.5149 51.2841C14.9174 51.2174 15.6562 51.8929 15.6502 53.2352C15.6502 53.4962 15.6502 53.7571 15.6472 54.018C14.9895 53.7426 14.3348 53.6121 13.62 53.6614C11.5897 53.789 10.2142 55.1574 10.2022 58.2219C10.2022 58.3668 10.2022 58.5089 10.2022 58.6539C10.1932 61.1559 11.3855 62.5127 13.0674 62.2866C14.1516 62.1445 14.9835 61.4951 15.5902 60.3557C15.5902 60.8196 15.5842 61.2863 15.5842 61.7502C16.7074 61.614 17.8307 61.4835 18.9569 61.3617C18.9719 58.5234 18.9869 55.688 19.005 52.8496C19.014 51.345 18.5605 50.2172 17.6505 49.475" fill="#E10514"></path><path d="M25.8165 53.5194C24.2488 52.3568 23.9935 52.035 23.9935 51.5508C23.9935 51.0405 24.456 50.6752 25.2879 50.6463C26.0898 50.6202 26.8917 50.8434 27.6065 51.113C27.6125 50.2346 27.6155 49.3561 27.6215 48.4776C26.7625 48.2689 26.0478 48.1906 25.1017 48.2109C22.4948 48.2602 20.7379 49.6257 20.7289 51.7393C20.7289 51.7537 20.7289 51.7711 20.7289 51.7856C20.7199 53.3976 21.771 54.4732 23.3117 55.6039C24.7653 56.6679 25.0236 57.0361 25.0176 57.5435C25.0146 58.1639 24.5521 58.5698 23.7502 58.6365C22.9784 58.7002 22.0053 58.4596 20.864 58.0595C20.858 58.9728 20.852 59.886 20.849 60.7993C21.8191 61.0544 22.9633 61.1704 23.9665 61.0747C26.4021 60.8341 28.2732 59.3468 28.2852 57.2477C28.2852 57.2332 28.2852 57.2188 28.2852 57.2014C28.2942 55.8184 27.6966 54.8907 25.8135 53.5194" fill="#E10514"></path><path d="M34.5321 53.1454C32.9614 52.0147 32.7061 51.7045 32.7061 51.2406C32.7091 50.7535 33.1686 50.4085 34.0006 50.3882C34.8024 50.3679 35.6043 50.5912 36.3191 50.8579C36.3221 50.0142 36.3281 49.1706 36.3311 48.324C35.4722 48.1181 34.7544 48.0399 33.8113 48.0544C31.2045 48.0863 29.4475 49.3793 29.4355 51.3913C29.4355 51.4058 29.4355 51.4203 29.4355 51.4348C29.4265 52.9685 30.4807 54.0035 32.0244 55.1052C33.481 56.146 33.7363 56.5027 33.7363 56.9897C33.7333 57.5841 33.2708 57.9639 32.4689 58.0131C31.694 58.0595 30.7209 57.8102 29.5767 57.413C29.5707 58.2828 29.5676 59.1525 29.5616 60.0223C30.5347 60.2861 31.682 60.4195 32.6851 60.3499C35.1238 60.1759 37.0009 58.7843 37.0099 56.7665C37.0099 56.752 37.0099 56.7375 37.0099 56.723C37.0159 55.3952 36.4182 54.4848 34.5321 53.1483" fill="#E10514"></path><path d="M44.7435 54.1891C44.7374 56.2098 44.332 57.3289 43.47 57.355C42.6081 57.384 42.1245 56.2881 42.1306 54.25C42.1306 53.9919 42.1306 53.7368 42.1306 53.4788C42.1396 51.4203 42.6291 50.3215 43.4911 50.3099C44.353 50.2983 44.7495 51.3797 44.7435 53.4208C44.7435 53.6759 44.7435 53.931 44.7435 54.1862M44.8786 47.8833C43.389 47.8949 42.6651 48.8632 42.1756 49.5561C42.1756 49.0778 42.1786 48.5994 42.1816 48.121C41.0524 48.1326 39.9261 48.1442 38.7999 48.1587C38.7788 52.9656 38.7548 57.7696 38.7338 62.5736C39.8661 62.504 40.9953 62.4431 42.1276 62.388C42.1336 60.9964 42.1396 59.6019 42.1426 58.2103C42.6561 58.88 43.3439 59.7672 44.8396 59.715C46.6806 59.6541 48.1222 58.2857 48.1312 54.25C48.1312 53.9108 48.1312 53.5744 48.1312 53.2352C48.1402 49.1561 46.7106 47.8717 44.8756 47.8833" fill="#E10514"></path><path d="M55.6575 54.0905C55.6575 56.2765 55.138 57.3289 54.276 57.3318C53.4141 57.3347 52.8975 56.2881 52.8975 54.0992C52.8975 53.847 52.8975 53.5947 52.8975 53.3425C52.8975 51.113 53.4171 50.1012 54.279 50.0983C55.138 50.0983 55.6575 51.1072 55.6575 53.3338V54.0905ZM54.282 47.8891C51.531 47.8891 49.5187 49.7794 49.5127 53.4121C49.5127 53.6382 49.5127 53.8615 49.5127 54.0876C49.5037 57.7232 51.5159 59.5526 54.279 59.5381C57.0421 59.5236 59.0543 57.6768 59.0513 54.0557C59.0513 53.8325 59.0513 53.6063 59.0513 53.3831C59.0483 49.762 57.0391 47.8862 54.288 47.8891" fill="#E10514"></path><path d="M64.0338 49.4953C64.0338 49.0227 64.0338 48.5501 64.0308 48.0776C62.9016 48.0718 61.7753 48.066 60.6461 48.0631C60.6521 51.8262 60.6551 55.5894 60.6611 59.3555C61.7933 59.37 62.9256 59.3932 64.0548 59.4193C64.0488 57.4014 64.0458 55.3865 64.0398 53.3686C64.0368 51.7595 64.8387 50.9652 66.4455 50.9855C66.4665 50.9855 66.4845 50.9855 66.5025 50.9855C66.4995 49.9794 66.4965 48.9734 66.4935 47.9674C65.2021 47.8949 64.4873 48.5269 64.0308 49.4953" fill="#E10514"></path><path d="M73.1639 57.6159C72.5602 57.5899 72.2149 57.3811 72.2119 56.865C72.2029 54.6501 72.1938 52.4351 72.1848 50.2201C72.7885 50.2317 73.3892 50.2433 73.9928 50.2549C73.9898 49.5619 73.9868 48.8661 73.9838 48.1703C73.3832 48.1616 72.7795 48.1558 72.1788 48.1471C72.1728 47.1614 72.1698 46.1757 72.1668 45.1928C71.0406 45.1928 69.9113 45.187 68.7851 45.187C68.7881 46.1641 68.7911 47.1382 68.7971 48.1123C68.4907 48.1123 68.1844 48.1065 67.8811 48.1036C67.8811 48.785 67.8841 49.4692 67.8871 50.1505C68.1934 50.1563 68.4998 50.1592 68.8061 50.1621C68.8151 52.6409 68.8241 55.1197 68.8331 57.5985C68.8391 59.3265 70.3918 59.773 72.0046 59.8483C72.6954 59.8802 73.5003 59.7498 74.0139 59.5613C74.0139 58.8829 74.0079 58.2016 74.0048 57.5203C73.7165 57.5927 73.4312 57.6246 73.1729 57.613" fill="#E10514"></path><path d="M81.4561 57.7319C79.8493 57.6275 78.7261 56.7259 78.7021 52.638C78.7021 52.4467 78.7021 52.2553 78.6991 52.064C78.678 48.2022 79.7923 47.1498 81.339 47.1672C81.9967 47.1759 82.5703 47.3615 83.2911 47.7123C83.2851 46.7642 83.2791 45.8133 83.2761 44.8652C82.5313 44.5927 81.9547 44.5028 80.9816 44.5028C77.717 44.5144 75.1191 46.6337 75.1461 51.977C75.1461 52.1509 75.1461 52.3249 75.1461 52.4988C75.1701 57.8015 77.6239 60.0948 80.8404 60.3441C81.8435 60.4195 82.6184 60.3673 83.4203 60.0716C83.4143 59.167 83.4083 58.2625 83.4053 57.3608C82.6905 57.6536 82.0027 57.7638 81.4591 57.729" fill="#E10514"></path><path d="M88.9704 58.8365C88.3698 58.7843 87.9072 58.3755 87.9012 57.1492C87.9012 57.0419 87.9012 56.9346 87.9012 56.8245C87.8952 55.6445 88.3487 55.2096 89.0365 55.2531C89.3218 55.2705 89.8384 55.4444 90.0967 55.5807C90.0997 56.2997 90.1057 57.0187 90.1087 57.7406C90.1117 58.5408 89.5411 58.8858 88.9704 58.8394M92.0368 49.3996C91.2019 48.6835 90.0816 48.3298 88.4208 48.2921C87.5619 48.2718 86.3876 48.4081 85.3574 48.7531C85.3634 49.6054 85.3664 50.4578 85.3724 51.3102C86.1143 51.0434 87.0303 50.797 87.9193 50.8289C89.3248 50.8782 90.0726 51.5885 90.0786 52.8815C90.0786 53.1309 90.0816 53.3831 90.0816 53.6324C89.4209 53.2903 88.7602 53.0932 88.0454 53.0584C86.0091 52.9627 84.6426 54.0412 84.6576 56.7636C84.6576 56.8911 84.6576 57.0216 84.6576 57.1492C84.6697 59.3758 85.883 60.8399 87.5739 61.0051C88.6611 61.1095 89.49 60.6804 90.0846 59.7063C90.0846 60.1528 90.0907 60.5963 90.0937 61.0428C91.2199 61.1588 92.3461 61.2776 93.4694 61.4023C93.4544 58.5582 93.4394 55.7112 93.4243 52.867C93.4153 51.3566 92.9528 50.1824 92.0308 49.3938" fill="#E10514"></path></svg>