<svg xmlns="http://www.w3.org/2000/svg" width="31" height="37" viewBox="0 0 31 37" fill="none"><path d="M28.9636 3.24253C26.4055 1.35106 20.8855 0 15.5 0C10.1145 0 4.59446 1.35106 2.03637 3.24253C0.555375 4.32338 -0.117807 5.67443 0.0168295 7.2957C0.0168295 12.1595 3.78665 24.7243 10.3838 33.7764C11.5955 35.5328 13.4805 36.3434 15.5 36.4785C17.5195 36.4785 19.5391 35.5328 20.6162 33.7764C27.348 24.5892 30.9832 12.0244 30.9832 7.2957C31.1178 5.67443 30.4446 4.32338 28.9636 3.24253Z" fill="#E10514"></path><path d="M10.7877 16.8882C10.7877 16.8882 9.44136 13.5105 8.63354 9.9978C8.63354 9.72759 8.76818 9.45738 9.03745 9.32227C10.5184 8.91695 13.3458 8.51164 14.8268 8.51164C18.7313 8.51164 21.6933 9.32227 21.6933 12.0244C21.6933 14.4563 18.5966 16.3478 10.7877 16.8882ZM25.867 11.484C25.7323 7.5659 22.7703 4.32336 14.9614 4.32336C11.5955 4.32336 8.095 4.99889 5.67154 6.07974C5.40227 6.21484 5.133 6.34995 4.86373 6.48505C4.32518 6.89037 4.05591 7.29569 4.05591 8.10632C4.05591 8.24143 4.86373 18.3743 13.2112 30.9392C13.7497 31.6147 14.2883 32.5604 15.2307 32.5604C15.5 32.5604 15.7693 32.5604 16.1732 32.2902C16.5771 32.1551 17.2503 31.6147 17.3849 30.8041C17.5195 30.2636 17.3849 29.7232 17.1156 29.3179C14.4229 25.1296 12.4034 20.8062 12.4034 20.8062C12.4034 20.8062 26.1363 20.1307 25.867 11.484Z" fill="white"></path></svg>